<svg xmlns="http://www.w3.org/2000/svg" viewBox="0 0 1000 1000"><title>Aluminum</title><path d="M500,246.83a244.43,244.43,0,0,0-78.4,12.9,197.63,197.63,0,0,1,45.77-5.4c108.94,0,197.25,88.31,197.25,197.25S576.31,648.83,467.38,648.83,270.13,560.52,270.13,451.58A196.43,196.43,0,0,1,288.72,368a243.66,243.66,0,0,0-33.6,123.75c0,135.24,109.63,244.87,244.87,244.87S744.88,626.95,744.88,491.71,635.24,246.83,500,246.83Z"/><circle cx="362.38" cy="305.33" r="42.75"/><path d="M796.63,800.33C763.71,777.5,721,758.79,675.88,741.08L574.46,606.81a13.93,13.93,0,0,0-13.4-5.34l-18.68,3.11,75-57.75-4.71,11.37a18.85,18.85,0,0,0,2.79,19.09Z"/><path d="M122.82,730.51c20.9-27.22,42.36-72.36,60.13-110.64l114-73.26a13.44,13.44,0,0,0,5.7-11.56l-.63-19.9s8,13.32,15.56,24.75c12.91,19.54,35.06,48.44,35.06,48.44l-16.37-8.62c-4.8-2.92-7.79-1.49-12.52,2Z"/><path d="M730.63,129.83l-125,191.11a10.62,10.62,0,0,0-.68,10.42L612.5,347l-69.37-46.88,14,1.32a9.81,9.81,0,0,0,9.12-4.38L635,192.46C672.54,170.68,714,148.27,730.63,129.83Z"/></svg>