<svg xmlns="http://www.w3.org/2000/svg" viewBox="0 0 1000 1000"><title>Atium</title><path d="M500,253.83a242.22,242.22,0,0,0-41.68,3.67,212.09,212.09,0,0,1,23.23-1.31c116,0,210,94,210,210s-94,210-210,210-210-94-210-210A209,209,0,0,1,301,358.91a239.85,239.85,0,0,0-42,135.92c0,133.1,107.9,241,241,241s241-107.9,241-241S633.1,253.83,500,253.83Z"/><circle cx="365" cy="302.83" r="39.5"/><path d="M511.5,449.33,225.64,655.25A17.39,17.39,0,0,1,215,658.52l-27-.69a681,681,0,0,1,60.5,64l-.4-23.23a12.87,12.87,0,0,1,4.13-9.68Z"/><path d="M547.81,371.89c24.65,18.35,44.75,38,65.52,61.56L613,407.7a12.78,12.78,0,0,1,4-9.47L855,173.77,585,367.51a17.27,17.27,0,0,1-10.13,3.24Z"/><path d="M824.94,765.46,642.68,555.14a16.85,16.85,0,0,1-4.12-11V520.39c-17.73,17.92-39.63,35.56-63.75,53.06l26.56-.15a17.81,17.81,0,0,1,11.91,4.48Z"/><path d="M500.94,867.08,500,639.48a10.13,10.13,0,0,1,3.8-8l14.93-13.44c-26.75,3.34-54.36,3.16-82.69,0l14.76,18a29.29,29.29,0,0,1,6.86,13.77Z"/></svg>