<svg xmlns="http://www.w3.org/2000/svg" viewBox="0 0 1000 1000"><title>Brass</title><path d="M500,274.89c-127.22,0-230.34,103.13-230.34,230.34a229.29,229.29,0,0,0,47,139.39A188.08,188.08,0,0,1,283.16,537.3c0-105.16,86.17-190.41,192.47-190.41S668.09,432.14,668.09,537.3,581.92,727.71,475.63,727.71a193.41,193.41,0,0,1-81.33-17.83A229.26,229.26,0,0,0,500,735.58c127.22,0,230.34-103.13,230.34-230.34S627.22,274.89,500,274.89Z"/><circle cx="478.78" cy="514.33" r="37.5"/><path d="M663.53,239.72,544.63,430.8C533,416.85,516.88,412.61,505,410.27l121.09-191c1.47-3.16,1.31-4.31.48-7.34l-4-14.64,4.89-8.38c27.64,17.22,55.06,33.38,73.36,40.13l-26.26,4.44C667.48,234.69,667.48,234.69,663.53,239.72Z"/><path d="M367.79,208.15l20.93,18.18c4.58,4.7,11,13.65,12.62,20L450,429.21l-8.39-216.33A36.17,36.17,0,0,1,444,199l2.7-7.17Z"/><path d="M568.34,521.46l214.19-83a13.12,13.12,0,0,0,6.76-6.78l9.49-16.57c-1.69,15.66,1,58.19,9,102.38l-32.8-33a8,8,0,0,0-7.28-2.3Z"/><path d="M220.91,848.83,393,583.33c11.65,12.05,24.41,22.89,39.37,31.31Z"/></svg>