<svg xmlns="http://www.w3.org/2000/svg" viewBox="0 0 1000 1000"><title>Bronze</title><path d="M500,254.33a242.64,242.64,0,0,0-36.7,2.78c2-.06,4.08-.16,6.14-.16,109.25,0,197.81,88.56,197.81,197.81S578.69,652.58,469.44,652.58,271.63,564,271.63,454.77a197.74,197.74,0,0,1,8.72-58.21,239.78,239.78,0,0,0-21.09,98.52C259.25,628,367,735.83,500,735.83S740.75,628,740.75,495.08,633,254.33,500,254.33Z"/><circle cx="581" cy="462.83" r="42"/><path d="M480.41,828.53a669,669,0,0,1,118.84-11.2L581,802.83a69.45,69.45,0,0,1-13.11-16.69L242.25,239.33,512.52,798.48a6.71,6.71,0,0,1-2.4,8.56Z"/><path d="M697.75,728.33l-74.56,59.9a3.68,3.68,0,0,1-5.88-1.93l-1.79-6.87A12.79,12.79,0,0,1,618.08,768l7.67-9.16-262.5-416L667.14,724.66a12.76,12.76,0,0,0,10.7,4.79Z"/></svg>