<svg xmlns="http://www.w3.org/2000/svg" viewBox="0 0 1000 1000"><title>Chromium</title><path d="M671.33,393.27a248.8,248.8,0,0,1,5.42,51.81c0,116.81-80,211.5-178.75,211.5s-178.75-94.69-178.75-211.5c0-102.74,61.92-188.33,144-207.47v-.32C342.05,255.07,249,359.44,249,485.58c0,138.62,112.38,251,251,251s251-112.38,251-251a249.82,249.82,0,0,0-27.37-113.94C710.36,384.4,692.9,392.23,671.33,393.27Z"/><circle cx="597.59" cy="292.96" r="42.38"/><path d="M586.25,404.71A112.83,112.83,0,0,1,588.12,425c0,58.82-45.08,106.5-100.69,106.5S386.75,483.77,386.75,425c0-49,31.35-90.19,74-102.59a141.56,141.56,0,1,0,157.87,82.34C609.4,407.76,599.62,409.68,586.25,404.71Z"/><path d="M816.87,794.33,523.25,411.08c3.19-16.71.63-28.37-.75-37.12l-77.25,63,15,2.76a24.1,24.1,0,0,1,12.8,6.76Z"/></svg>