<svg xmlns="http://www.w3.org/2000/svg" viewBox="0 0 1000 1000"><title>Electrum</title><path d="M542.67,667.58c-114.6,0-207.5-78.24-207.5-174.75,0-55.05,30.26-104.13,77.5-136.16L434,287.58H356.64a247.11,247.11,0,0,0-102.47,200.5c0,136.69,110.81,247.5,247.5,247.5,122.92,0,224.86-89.63,244.16-207.09C726.28,607.9,642.75,667.58,542.67,667.58Z"/><circle cx="615.17" cy="571.58" r="42"/><path d="M547.67,543.58l-1.87-2.38L311.67,236.58c3.36-9.7,3.3-21.58,0-35.5l-83,79,20,.78a14,14,0,0,1,9.41,4.13L421.67,449.58C470.22,483,517.16,515.86,547.67,543.58Z"/></svg>