<svg xmlns="http://www.w3.org/2000/svg" viewBox="0 0 1000 1000"><title>Gold</title><path d="M564.81,259.05l-24,77.19C614.41,362.49,666,423.72,666,495.08c0,95.27-92,172.5-205.5,172.5-102.71,0-187.81-63.26-203.06-145.89,14,121.07,116.85,215.08,241.68,215.08,134.41,0,243.38-109,243.38-243.37C742.53,381.74,667.31,287.72,564.81,259.05Z"/><path d="M471.78,541.21c12.57-45,23.34-87.5,28.22-121.88L633.94,196.91a16.31,16.31,0,0,0,1.77-12.66l-4.56-16.92,61.13,42.38-11.08,1.48a12.35,12.35,0,0,0-8.87,5.75Z"/><path d="M704.61,215.71l75,47.62-16.21-.81a9.61,9.61,0,0,0-8.95,5.06l-363,677.12c14.72-40.8,56.2-191.62,70.5-250.38L709.47,245a16.07,16.07,0,0,0,1-13.27Z"/><circle cx="468.53" cy="265.08" r="41"/></svg>