<svg xmlns="http://www.w3.org/2000/svg" viewBox="0 0 1000 1000"><title>Iron</title><path d="M560.76,141.91l-98.17,22.34,25,12.51a13.81,13.81,0,0,1,7,8.28l75.23,243.78Z"/><path d="M692.29,292.64a38.63,38.63,0,1,1-38.63-38.21A38.42,38.42,0,0,1,692.29,292.64Z"/><path d="M533.8,442.86l-97-245.9a26,26,0,0,1-1.73-11.51l1.59-20.72L334.84,220.14l33.54,1.5a6.46,6.46,0,0,1,4.92,2.63Z"/><path d="M536.22,668.13c-115.67-3.05-207.37-83.86-204.82-180.5,2.49-94.52,94.24-169.12,206.49-169.49V246a250.54,250.54,0,0,0-36.22-2.65C364.9,243.33,254,353.75,254,490S364.9,736.58,501.66,736.58c123,0,225-89.34,244.31-206.41C726,611.25,639,670.84,536.22,668.13Z"/></svg>