<svg xmlns="http://www.w3.org/2000/svg" viewBox="0 0 1000 1000"><title>Lerasium</title><path d="M692,342.35a206.42,206.42,0,0,1,33,112.23c0,113.77-91.33,206-204,206s-204-92.23-204-206,91.33-206,204-206c2.37,0,4.71.1,7.06.18A242.76,242.76,0,0,0,500,247.08c-133.93,0-242.5,109.47-242.5,244.5S366.07,736.08,500,736.08s242.5-109.47,242.5-244.5A244.66,244.66,0,0,0,692,342.35Z"/><circle cx="609.34" cy="297.96" r="42.38"/><path d="M380.88,206.83c-152.23,4.47-272.37,112-272.37,250.75,0,45.71,17.44,84.53,40.62,121.69l54.24-54.34a133.94,133.94,0,0,1-17.47-27.87C139,380,259.75,241,380.88,206.83Z"/><path d="M253.75,890.33l18.94-6.75a25,25,0,0,0,13-10.68l253.39-421.7-207,433.46a33.47,33.47,0,0,0,1.12,31l8.22,14.42A576,576,0,0,0,253.75,890.33Z"/><path d="M216.25,651.28C357.12,609.8,437,518.79,494.5,411.08,422.19,610.25,305.82,687.77,179.72,719.22a67.29,67.29,0,0,0-21.27,9.3l-18.71,12.55c5.52-34.84,5.37-68.35-2.25-100.12l13.5,8.49a39.51,39.51,0,0,0,23.88,6l30.89-2.24A50,50,0,0,0,216.25,651.28Z"/></svg>