<svg xmlns="http://www.w3.org/2000/svg" viewBox="0 0 1000 1000"><title>Tin</title><path d="M504.54,678.53l32-443.3a44.14,44.14,0,0,1,3.73-14.84l7.4-16.55c-30.68,9.42-73,10.74-118.74,9.75l35.51,18c7.42,3.7,12.31,3.7,12.84,12Z"/><path d="M536.74,134.56a39.39,39.39,0,1,1-39.39-39.39A39.39,39.39,0,0,1,536.74,134.56Z"/><path d="M500,268.33c-142.7,0-258.37,112-258.37,250.13,0,125.16,95,228.85,218.95,247.23-81.08-21.08-141.7-105.1-141.7-205.6,0-116.39,81.26-210.75,181.5-210.75s181.5,94.36,181.5,210.75c0,99.94-59.93,183.58-140.33,205.24C664.48,746.08,758.38,642.9,758.38,518.46,758.38,380.32,642.7,268.33,500,268.33Z"/><path d="M500,393.58c-81,0-146.62,64.14-146.62,143.25,0,63.35,42.11,117.06,100.46,136C420.94,655,398.38,619,398.38,577.33c0-59.23,45.5-107.25,101.62-107.25s101.63,48,101.63,107.25c0,41.67-22.56,77.71-55.46,95.46,58.35-18.9,100.46-72.61,100.46-136C646.63,457.72,581,393.58,500,393.58Z"/></svg>