<svg xmlns="http://www.w3.org/2000/svg" viewBox="0 0 1000 1000"><title>Zinc</title><path d="M692.45,341.84a201.85,201.85,0,0,1,32.36,109.86c0,112-90.83,202.87-202.88,202.87S319.06,563.75,319.06,451.71s90.83-202.88,202.87-202.88c.62,0,1.23,0,1.85,0-7.83-.76-15.76-1.17-23.79-1.17-134.72,0-243.94,109.21-243.94,243.94S365.28,735.58,500,735.58,743.94,626.37,743.94,491.64A242.81,242.81,0,0,0,692.45,341.84Z"/><circle cx="615.69" cy="287.83" r="40.12"/><path d="M266.56,936.21,513.69,536.15a61.78,61.78,0,0,1,18-18.75l10.11-9.07c-28.88-5.62-50.59-15.83-84.75-33.42L469,498.14a18.92,18.92,0,0,1,.21,16.83Z"/><path d="M184.81,889.33l261.9-451.54A40.59,40.59,0,0,1,456.93,426c9-6.95,20.8-13.78,28.26-16.69-21.37-.75-82.21-33.27-93-40.87l9.8,24.27a28.41,28.41,0,0,1-.64,22.06Z"/></svg>